<mxfile host="app.diagrams.net" agent="Mozilla/5.0 (Windows NT 10.0; Win64; x64) AppleWebKit/537.36 (KHTML, like Gecko) Chrome/137.0.0.0 Safari/537.36 Edg/137.0.0.0" version="27.1.6">
  <diagram name="Page-1" id="NUrmI8YDZ_bbauFBzy91">
    <mxGraphModel dx="2633" dy="1028" grid="1" gridSize="10" guides="1" tooltips="1" connect="1" arrows="1" fold="1" page="1" pageScale="1" pageWidth="1100" pageHeight="850" math="0" shadow="0">
      <root>
        <mxCell id="0" />
        <mxCell id="1" parent="0" />
        <mxCell id="cgU1a-_r7NcbaBn_P0NX-1" value="" style="rounded=0;whiteSpace=wrap;html=1;fillColor=#a0522d;fontColor=#ffffff;strokeColor=#6D1F00;sketch=1;curveFitting=1;jiggle=2;" parent="1" vertex="1">
          <mxGeometry x="30" y="467.5" width="1060" height="122.5" as="geometry" />
        </mxCell>
        <mxCell id="BU_fxgqnpSfx8vlLo7ZI-23" value="" style="rounded=0;whiteSpace=wrap;html=1;fillColor=#a0522d;fontColor=#ffffff;strokeColor=#6D1F00;sketch=1;curveFitting=1;jiggle=2;" parent="1" vertex="1">
          <mxGeometry x="350" y="377.5" width="500" height="80" as="geometry" />
        </mxCell>
        <mxCell id="K1DOdDhO_AhgeLjn-Z8b-29" value="&lt;font face=&quot;Lucida Console&quot; style=&quot;font-size: 15px; background-color: light-dark(#ffffff, var(--ge-dark-color, #121212)); color: light-dark(rgb(0, 0, 0), rgb(255, 255, 255));&quot;&gt;Permeable&lt;/font&gt;&lt;div&gt;&lt;font face=&quot;Lucida Console&quot; style=&quot;font-size: 15px; background-color: light-dark(#ffffff, var(--ge-dark-color, #121212)); color: light-dark(rgb(0, 0, 0), rgb(255, 255, 255));&quot;&gt;Fill&lt;/font&gt;&lt;/div&gt;" style="rounded=0;whiteSpace=wrap;html=1;fillColor=#a0522d;fontColor=#ffffff;strokeColor=#6D1F00;sketch=1;curveFitting=1;jiggle=2;" parent="1" vertex="1">
          <mxGeometry x="620" y="200" width="100" height="180" as="geometry" />
        </mxCell>
        <mxCell id="K1DOdDhO_AhgeLjn-Z8b-17" value="" style="rounded=0;whiteSpace=wrap;html=1;fillColor=#bac8d3;strokeColor=#23445d;" parent="1" vertex="1">
          <mxGeometry x="520" y="270" width="100" height="50" as="geometry" />
        </mxCell>
        <mxCell id="fZEjTNOgHe3qDdnWh54v-3" value="&lt;font face=&quot;Courier New&quot; style=&quot;font-size: 20px;&quot;&gt;CMU&lt;/font&gt;" style="rounded=0;whiteSpace=wrap;html=1;fillColor=#bac8d3;strokeColor=#23445d;" parent="1" vertex="1">
          <mxGeometry x="520" y="20" width="100" height="50" as="geometry" />
        </mxCell>
        <mxCell id="odWF-HK0cc1Ldgiukb00-13" value="&lt;pre&gt;&lt;pre style=&quot;color: rgb(255, 255, 255);&quot;&gt;&lt;span style=&quot;color: light-dark(rgb(0, 0, 0), rgb(255, 255, 255)); white-space: normal; background-color: light-dark(#ffffff, var(--ge-dark-color, #121212));&quot;&gt;&lt;font face=&quot;Lucida Console&quot;&gt;4&quot; PERFORATED Drain ***&lt;/font&gt;&lt;/span&gt;&lt;/pre&gt;&lt;/pre&gt;" style="rounded=0;whiteSpace=wrap;html=1;fillStyle=solid;sketch=1;curveFitting=1;jiggle=2;strokeColor=#36393d;fillColor=#cce5ff;" parent="1" vertex="1">
          <mxGeometry x="50" y="483.75" width="1040" height="50" as="geometry" />
        </mxCell>
        <mxCell id="BU_fxgqnpSfx8vlLo7ZI-9" value="" style="rounded=0;whiteSpace=wrap;html=1;fillColor=#b0e3e6;strokeColor=#0e8088;" parent="1" vertex="1">
          <mxGeometry x="360" y="405" width="520" height="25" as="geometry" />
        </mxCell>
        <mxCell id="BU_fxgqnpSfx8vlLo7ZI-22" value="&lt;pre&gt;&lt;br&gt;&lt;/pre&gt;" style="rounded=0;whiteSpace=wrap;html=1;fillColor=#b1ddf0;strokeColor=#10739e;sketch=1;curveFitting=1;jiggle=2;" parent="1" vertex="1">
          <mxGeometry x="30" y="30" width="490" height="290" as="geometry" />
        </mxCell>
        <mxCell id="BU_fxgqnpSfx8vlLo7ZI-4" value="" style="rounded=1;whiteSpace=wrap;html=1;strokeWidth=2;fillWeight=4;hachureGap=8;hachureAngle=45;sketch=1;" parent="1" vertex="1">
          <mxGeometry x="20" y="600" width="680" height="240" as="geometry" />
        </mxCell>
        <mxCell id="K1DOdDhO_AhgeLjn-Z8b-7" value="&lt;font face=&quot;Courier New&quot; style=&quot;font-size: 22px;&quot;&gt;&#39;4&lt;/font&gt;" style="shape=dimension;direction=north;whiteSpace=wrap;html=1;align=center;points=[];verticalAlign=bottom;labelBackgroundColor=none;horizontal=0;spacingBottom=3;rotation=-180;" parent="1" vertex="1">
          <mxGeometry y="30" width="100" height="290" as="geometry" />
        </mxCell>
        <mxCell id="K1DOdDhO_AhgeLjn-Z8b-10" value="&lt;div style=&quot;text-align: left;&quot;&gt;&lt;font face=&quot;Courier New&quot; style=&quot;color: light-dark(rgb(179, 179, 179), rgb(255, 255, 255));&quot;&gt;&lt;span style=&quot;font-size: 20px; background-color: light-dark(#ffffff, var(--ge-dark-color, #121212));&quot;&gt;8&quot;&lt;/span&gt;&lt;/font&gt;&lt;/div&gt;" style="shape=dimension;direction=north;whiteSpace=wrap;html=1;align=center;points=[];verticalAlign=bottom;labelBackgroundColor=none;horizontal=0;spacingBottom=3;" parent="1" vertex="1">
          <mxGeometry x="520" y="270" width="100" height="50" as="geometry" />
        </mxCell>
        <mxCell id="K1DOdDhO_AhgeLjn-Z8b-11" value="" style="endArrow=none;dashed=1;html=1;dashPattern=1 3;strokeWidth=2;rounded=0;" parent="1" edge="1">
          <mxGeometry width="50" height="50" relative="1" as="geometry">
            <mxPoint x="576.25" y="160" as="sourcePoint" />
            <mxPoint x="1023.75" y="160" as="targetPoint" />
          </mxGeometry>
        </mxCell>
        <mxCell id="K1DOdDhO_AhgeLjn-Z8b-20" value="&lt;font face=&quot;Lucida Console&quot; style=&quot;font-size: 20px;&quot;&gt;GRADE**&lt;/font&gt;" style="edgeLabel;html=1;align=center;verticalAlign=middle;resizable=0;points=[];fontFamily=Courier New;" parent="K1DOdDhO_AhgeLjn-Z8b-11" vertex="1" connectable="0">
          <mxGeometry x="0.4688" relative="1" as="geometry">
            <mxPoint x="50" as="offset" />
          </mxGeometry>
        </mxCell>
        <mxCell id="K1DOdDhO_AhgeLjn-Z8b-13" value="&lt;pre&gt;&lt;font face=&quot;Lucida Console&quot; style=&quot;font-size: 20px;&quot;&gt;6&quot; Footing Slab&lt;/font&gt;&lt;/pre&gt;" style="rounded=0;whiteSpace=wrap;html=1;fillColor=#647687;fontColor=#ffffff;strokeColor=#314354;" parent="1" vertex="1">
          <mxGeometry x="380" y="320" width="240" height="30" as="geometry" />
        </mxCell>
        <mxCell id="K1DOdDhO_AhgeLjn-Z8b-18" value="&lt;font style=&quot;font-size: 16px;&quot; face=&quot;Courier New&quot;&gt;&lt;b style=&quot;&quot;&gt;&lt;u&gt;Cross Section (East Elevation)&lt;/u&gt;&lt;/b&gt;&lt;/font&gt;" style="text;html=1;align=center;verticalAlign=middle;whiteSpace=wrap;rounded=0;" parent="1" vertex="1">
          <mxGeometry x="60" y="610" width="510" height="30" as="geometry" />
        </mxCell>
        <mxCell id="K1DOdDhO_AhgeLjn-Z8b-19" value="" style="endArrow=none;dashed=1;html=1;rounded=0;entryX=0;entryY=0;entryDx=0;entryDy=0;" parent="1" edge="1">
          <mxGeometry width="50" height="50" relative="1" as="geometry">
            <mxPoint x="30" y="30" as="sourcePoint" />
            <mxPoint x="530" y="30" as="targetPoint" />
          </mxGeometry>
        </mxCell>
        <mxCell id="K1DOdDhO_AhgeLjn-Z8b-28" value="&lt;font face=&quot;Courier New&quot; style=&quot;font-size: 20px;&quot;&gt;WATERLINE&lt;/font&gt;" style="edgeLabel;html=1;align=center;verticalAlign=middle;resizable=0;points=[];" parent="K1DOdDhO_AhgeLjn-Z8b-19" vertex="1" connectable="0">
          <mxGeometry x="0.272" y="1" relative="1" as="geometry">
            <mxPoint as="offset" />
          </mxGeometry>
        </mxCell>
        <mxCell id="K1DOdDhO_AhgeLjn-Z8b-21" value="Single Block" style="text;html=1;align=center;verticalAlign=middle;whiteSpace=wrap;rounded=0;rotation=-90;fontFamily=Courier New;fontSize=11;" parent="1" vertex="1">
          <mxGeometry x="500" y="280" width="80" height="30" as="geometry" />
        </mxCell>
        <mxCell id="K1DOdDhO_AhgeLjn-Z8b-30" value="&lt;font face=&quot;Courier New&quot; style=&quot;font-size: 20px;&quot;&gt;CMU&lt;/font&gt;" style="rounded=0;whiteSpace=wrap;html=1;fillColor=#bac8d3;strokeColor=#23445d;" parent="1" vertex="1">
          <mxGeometry x="520" y="220" width="100" height="50" as="geometry" />
        </mxCell>
        <mxCell id="K1DOdDhO_AhgeLjn-Z8b-31" value="&lt;font face=&quot;Courier New&quot; style=&quot;font-size: 20px;&quot;&gt;CMU&lt;/font&gt;" style="rounded=0;whiteSpace=wrap;html=1;fillColor=#bac8d3;strokeColor=#23445d;" parent="1" vertex="1">
          <mxGeometry x="520" y="120" width="100" height="50" as="geometry" />
        </mxCell>
        <mxCell id="K1DOdDhO_AhgeLjn-Z8b-35" value="&lt;font face=&quot;Courier New&quot;&gt;Conc. Walkway&lt;/font&gt;" style="rounded=0;whiteSpace=wrap;html=1;fillColor=#647687;fontColor=#ffffff;strokeColor=#314354;" parent="1" vertex="1">
          <mxGeometry x="620" y="160" width="230" height="40" as="geometry" />
        </mxCell>
        <mxCell id="K1DOdDhO_AhgeLjn-Z8b-36" value="&lt;font face=&quot;Courier New&quot;&gt;Top Block/Coping&lt;/font&gt;" style="rounded=0;whiteSpace=wrap;html=1;fillColor=#bac8d3;strokeColor=#23445d;" parent="1" vertex="1">
          <mxGeometry x="505" y="10" width="130" height="20" as="geometry" />
        </mxCell>
        <mxCell id="K1DOdDhO_AhgeLjn-Z8b-37" value="&lt;font face=&quot;Courier New&quot;&gt;(Not To Scale)&lt;/font&gt;" style="text;html=1;align=center;verticalAlign=middle;whiteSpace=wrap;rounded=0;" parent="1" vertex="1">
          <mxGeometry x="220" y="805" width="220" height="30" as="geometry" />
        </mxCell>
        <mxCell id="BU_fxgqnpSfx8vlLo7ZI-1" value="&lt;font face=&quot;Courier New&quot; style=&quot;font-size: 22px;&quot;&gt;6&quot;&lt;/font&gt;" style="shape=dimension;direction=north;whiteSpace=wrap;html=1;align=center;points=[];verticalAlign=bottom;labelBackgroundColor=none;horizontal=0;spacingBottom=3;" parent="1" vertex="1">
          <mxGeometry x="580" y="320" width="40" height="30" as="geometry" />
        </mxCell>
        <mxCell id="BU_fxgqnpSfx8vlLo7ZI-5" value="&lt;font face=&quot;Courier New&quot;&gt;** Grade will vary&lt;/font&gt;" style="text;html=1;align=center;verticalAlign=middle;whiteSpace=wrap;rounded=0;" parent="1" vertex="1">
          <mxGeometry x="40" y="730" width="160" height="30" as="geometry" />
        </mxCell>
        <mxCell id="BU_fxgqnpSfx8vlLo7ZI-6" value="&lt;font style=&quot;font-size: 20px;&quot;&gt;6&quot; Footing Slab&lt;/font&gt;" style="rounded=0;whiteSpace=wrap;html=1;fillColor=#647687;fontColor=#ffffff;strokeColor=#314354;fontFamily=Lucida Console;" parent="1" vertex="1">
          <mxGeometry x="30" y="320" width="330" height="30" as="geometry" />
        </mxCell>
        <mxCell id="BU_fxgqnpSfx8vlLo7ZI-7" value="" style="rounded=0;whiteSpace=wrap;html=1;fillColor=#b0e3e6;strokeColor=#0e8088;" parent="1" vertex="1">
          <mxGeometry x="360" y="300" width="20" height="110" as="geometry" />
        </mxCell>
        <mxCell id="BU_fxgqnpSfx8vlLo7ZI-8" value="&lt;pre&gt;&lt;pre style=&quot;color: rgb(255, 255, 255);&quot;&gt;&lt;span style=&quot;color: light-dark(rgb(0, 0, 0), rgb(255, 255, 255)); white-space: normal; background-color: light-dark(#ffffff, var(--ge-dark-color, #121212));&quot;&gt;&lt;font face=&quot;Lucida Console&quot;&gt;4&quot; Sleeve for underslab plumbing&lt;/font&gt;&lt;/span&gt;&lt;/pre&gt;&lt;/pre&gt;" style="rounded=0;whiteSpace=wrap;html=1;fillStyle=solid;sketch=1;curveFitting=1;jiggle=2;strokeColor=#36393d;fillColor=#cce5ff;" parent="1" vertex="1">
          <mxGeometry x="350" y="390" width="470" height="50" as="geometry" />
        </mxCell>
        <mxCell id="BU_fxgqnpSfx8vlLo7ZI-12" value="&lt;font face=&quot;Courier New&quot;&gt;4-6&lt;/font&gt;&lt;font face=&quot;Courier New&quot; style=&quot;font-size: 22px;&quot;&gt;&quot;&lt;/font&gt;" style="shape=dimension;direction=north;whiteSpace=wrap;html=1;align=center;points=[];verticalAlign=bottom;labelBackgroundColor=none;horizontal=0;spacingBottom=3;" parent="1" vertex="1">
          <mxGeometry x="590" y="160" width="60" height="40" as="geometry" />
        </mxCell>
        <mxCell id="BU_fxgqnpSfx8vlLo7ZI-14" value="&lt;pre&gt;36&quot; O.C.&lt;/pre&gt;" style="shape=dimension;direction=west;whiteSpace=wrap;html=1;align=center;points=[];verticalAlign=top;spacingTop=-15;labelBackgroundColor=none;" parent="1" vertex="1">
          <mxGeometry x="370" y="240" width="150" height="50" as="geometry" />
        </mxCell>
        <mxCell id="BU_fxgqnpSfx8vlLo7ZI-17" value="" style="rounded=0;whiteSpace=wrap;html=1;fillColor=#1ba1e2;fontColor=#ffffff;strokeColor=#006EAF;sketch=1;curveFitting=1;jiggle=2;" parent="1" vertex="1">
          <mxGeometry x="30" y="350" width="330" height="10" as="geometry" />
        </mxCell>
        <mxCell id="odWF-HK0cc1Ldgiukb00-12" style="edgeStyle=orthogonalEdgeStyle;rounded=0;orthogonalLoop=1;jettySize=auto;html=1;exitX=1;exitY=0.25;exitDx=0;exitDy=0;endArrow=none;startFill=1;startArrow=classic;entryX=0;entryY=0.5;entryDx=0;entryDy=0;dashed=1;" parent="1" target="BU_fxgqnpSfx8vlLo7ZI-19" edge="1">
          <mxGeometry relative="1" as="geometry">
            <mxPoint x="619" y="351.75" as="sourcePoint" />
            <mxPoint x="720" y="660" as="targetPoint" />
            <Array as="points">
              <mxPoint x="740" y="352" />
              <mxPoint x="740" y="650" />
              <mxPoint x="760" y="650" />
            </Array>
          </mxGeometry>
        </mxCell>
        <mxCell id="BU_fxgqnpSfx8vlLo7ZI-18" value="" style="rounded=0;whiteSpace=wrap;html=1;fillColor=#1ba1e2;fontColor=#ffffff;strokeColor=#006EAF;sketch=1;curveFitting=1;jiggle=2;" parent="1" vertex="1">
          <mxGeometry x="380" y="350" width="240" height="10" as="geometry" />
        </mxCell>
        <mxCell id="BU_fxgqnpSfx8vlLo7ZI-19" value="&lt;pre&gt;&lt;font face=&quot;Lucida Console&quot;&gt;Vapor/Moisture&lt;/font&gt;&lt;/pre&gt;&lt;pre&gt;&lt;font face=&quot;Lucida Console&quot;&gt; Underlayment ****&lt;/font&gt;&lt;/pre&gt;" style="text;html=1;align=center;verticalAlign=middle;whiteSpace=wrap;rounded=0;strokeColor=#36393d;fillColor=light-dark(#CCE5FF,#2D537C);sketch=1;curveFitting=1;jiggle=2;fillStyle=hachure;" parent="1" vertex="1">
          <mxGeometry x="750" y="620" width="130" height="61.5" as="geometry" />
        </mxCell>
        <mxCell id="BU_fxgqnpSfx8vlLo7ZI-20" value="&lt;font face=&quot;Courier New&quot;&gt;**** Minimum 10 mil sheeting&lt;/font&gt;" style="text;html=1;align=center;verticalAlign=middle;whiteSpace=wrap;rounded=0;" parent="1" vertex="1">
          <mxGeometry x="330" y="730" width="220" height="30" as="geometry" />
        </mxCell>
        <mxCell id="cgU1a-_r7NcbaBn_P0NX-9" style="edgeStyle=orthogonalEdgeStyle;rounded=0;orthogonalLoop=1;jettySize=auto;html=1;exitX=1;exitY=0.5;exitDx=0;exitDy=0;entryX=1;entryY=0.5;entryDx=0;entryDy=0;" parent="1" source="BU_fxgqnpSfx8vlLo7ZI-11" target="BU_fxgqnpSfx8vlLo7ZI-9" edge="1">
          <mxGeometry relative="1" as="geometry" />
        </mxCell>
        <mxCell id="BU_fxgqnpSfx8vlLo7ZI-11" value="&lt;pre&gt;&lt;font style=&quot;color: light-dark(rgb(0, 0, 0), rgb(4, 4, 255)); background-color: light-dark(#ffffff, var(--ge-dark-color, #121212));&quot;&gt;Main Drain&lt;/font&gt;&lt;/pre&gt;&lt;pre&gt;&lt;font style=&quot;color: light-dark(rgb(0, 0, 0), rgb(4, 4, 255)); background-color: light-dark(#ffffff, var(--ge-dark-color, #121212));&quot;&gt;1&quot; 1/4 SCH 40 PVC&lt;/font&gt;&lt;/pre&gt;" style="text;html=1;align=center;verticalAlign=middle;whiteSpace=wrap;rounded=0;strokeColor=default;fillColor=none;sketch=1;curveFitting=1;jiggle=2;fontFamily=Helvetica;fontSize=12;fontColor=default;" parent="1" vertex="1">
          <mxGeometry x="110" y="80" width="260" height="55" as="geometry" />
        </mxCell>
        <mxCell id="odWF-HK0cc1Ldgiukb00-5" style="edgeStyle=orthogonalEdgeStyle;rounded=0;orthogonalLoop=1;jettySize=auto;html=1;exitX=0;exitY=0.5;exitDx=0;exitDy=0;" parent="1" source="odWF-HK0cc1Ldgiukb00-3" edge="1">
          <mxGeometry relative="1" as="geometry">
            <mxPoint x="850" y="390" as="targetPoint" />
          </mxGeometry>
        </mxCell>
        <mxCell id="odWF-HK0cc1Ldgiukb00-3" value="&lt;font style=&quot;background-color: light-dark(#ffffff, var(--ge-dark-color, #121212));&quot; face=&quot;Courier New&quot;&gt;Permeable Fill&lt;/font&gt;" style="text;html=1;align=center;verticalAlign=middle;whiteSpace=wrap;rounded=0;strokeColor=default;fillColor=#A0522D;sketch=1;curveFitting=1;jiggle=2;" parent="1" vertex="1">
          <mxGeometry x="920" y="350" width="150" height="40" as="geometry" />
        </mxCell>
        <mxCell id="odWF-HK0cc1Ldgiukb00-6" value="" style="rounded=0;whiteSpace=wrap;html=1;fillColor=light-dark(#A0522D,#7F00FF);fontColor=#ffffff;strokeColor=#6D1F00;sketch=1;curveFitting=1;jiggle=2;fillStyle=zigzag-line;align=center;verticalAlign=middle;fontFamily=Helvetica;fontSize=12;" parent="1" vertex="1">
          <mxGeometry x="30" y="360" width="590" height="20" as="geometry" />
        </mxCell>
        <mxCell id="odWF-HK0cc1Ldgiukb00-7" style="edgeStyle=orthogonalEdgeStyle;rounded=0;orthogonalLoop=1;jettySize=auto;html=1;entryX=0;entryY=0.091;entryDx=0;entryDy=0;entryPerimeter=0;" parent="1" source="BU_fxgqnpSfx8vlLo7ZI-11" target="BU_fxgqnpSfx8vlLo7ZI-7" edge="1">
          <mxGeometry relative="1" as="geometry" />
        </mxCell>
        <mxCell id="odWF-HK0cc1Ldgiukb00-9" style="edgeStyle=orthogonalEdgeStyle;rounded=0;orthogonalLoop=1;jettySize=auto;html=1;entryX=1;entryY=0.5;entryDx=0;entryDy=0;" parent="1" source="odWF-HK0cc1Ldgiukb00-8" target="odWF-HK0cc1Ldgiukb00-6" edge="1">
          <mxGeometry relative="1" as="geometry" />
        </mxCell>
        <mxCell id="odWF-HK0cc1Ldgiukb00-14" value="&lt;font face=&quot;Lucida Console&quot; style=&quot;font-size: 19px; color: light-dark(rgb(0, 0, 0), rgb(11, 255, 128)); background-color: light-dark(#ffffff, var(--ge-dark-color, #121212));&quot;&gt;Compacted Fill&lt;/font&gt;" style="rounded=0;whiteSpace=wrap;html=1;fillColor=light-dark(#A0522D,#7F00FF);fontColor=#ffffff;strokeColor=#6D1F00;sketch=1;curveFitting=1;jiggle=2;fillStyle=zigzag-line;align=center;verticalAlign=middle;fontFamily=Helvetica;fontSize=12;" parent="1" vertex="1">
          <mxGeometry x="30" y="382.5" width="320" height="87.5" as="geometry" />
        </mxCell>
        <mxCell id="odWF-HK0cc1Ldgiukb00-15" value="" style="rounded=0;whiteSpace=wrap;html=1;fillColor=light-dark(#A0522D,#7F00FF);fontColor=#ffffff;strokeColor=#6D1F00;sketch=1;curveFitting=1;jiggle=2;fillStyle=zigzag-line;align=center;verticalAlign=middle;fontFamily=Helvetica;fontSize=12;" parent="1" vertex="1">
          <mxGeometry x="350" y="457.5" width="500" height="12.5" as="geometry" />
        </mxCell>
        <mxCell id="odWF-HK0cc1Ldgiukb00-16" value="&lt;font face=&quot;Courier New&quot;&gt;* Main Drain piping to run inside&amp;nbsp; 4&quot; sleeve under slab to trench&amp;nbsp;&lt;/font&gt;" style="text;html=1;align=left;verticalAlign=middle;whiteSpace=wrap;rounded=0;" parent="1" vertex="1">
          <mxGeometry x="50" y="660" width="260" height="40" as="geometry" />
        </mxCell>
        <mxCell id="odWF-HK0cc1Ldgiukb00-17" value="&lt;font face=&quot;Courier New&quot;&gt;*** 4&quot; drain to run under slab for hydrostatic relief, saturated earth and site drainage (See Geo/Civil)&lt;/font&gt;" style="text;html=1;align=left;verticalAlign=middle;whiteSpace=wrap;rounded=0;" parent="1" vertex="1">
          <mxGeometry x="340" y="660" width="320" height="60" as="geometry" />
        </mxCell>
        <mxCell id="ZS5StDtK9BJqc9LHPtpe-1" value="&lt;u&gt;&lt;font face=&quot;Lucida Console&quot; style=&quot;font-size: 18px;&quot;&gt;CMU POOL&lt;/font&gt;&lt;/u&gt;&lt;div style=&quot;text-align: left;&quot;&gt;&lt;span style=&quot;font-size: 10px;&quot;&gt;&lt;font face=&quot;Lucida Console&quot;&gt;Cruz Wootten&lt;/font&gt;&lt;/span&gt;&lt;/div&gt;&lt;div style=&quot;text-align: left;&quot;&gt;&lt;font face=&quot;Lucida Console&quot;&gt;&lt;span style=&quot;font-size: 10px; background-color: transparent; color: light-dark(rgb(0, 0, 0), rgb(255, 255, 255));&quot;&gt;17575 Parrot Drive&amp;nbsp;&lt;/span&gt;&lt;br&gt;&lt;span style=&quot;font-size: 10px; background-color: transparent; color: light-dark(rgb(0, 0, 0), rgb(255, 255, 255));&quot;&gt;Reno, Nevada&lt;/span&gt;&lt;/font&gt;&lt;/div&gt;&lt;div style=&quot;text-align: left;&quot;&gt;&lt;span style=&quot;background-color: transparent; color: light-dark(rgb(0, 0, 0), rgb(255, 255, 255)); font-size: 10px;&quot;&gt;&lt;font face=&quot;Lucida Console&quot;&gt;775.501.4398&lt;/font&gt;&lt;/span&gt;&lt;/div&gt;" style="swimlane;whiteSpace=wrap;html=1;startSize=100;align=center;" parent="1" vertex="1">
          <mxGeometry x="890" y="640" width="200" height="200" as="geometry" />
        </mxCell>
        <mxCell id="ZS5StDtK9BJqc9LHPtpe-2" value="&lt;font style=&quot;font-size: 40px;&quot;&gt;&amp;nbsp; &lt;/font&gt;&lt;font style=&quot;font-size: 23px;&quot;&gt;G&lt;/font&gt;&lt;font style=&quot;font-size: 23px;&quot;&gt;2.01&lt;/font&gt;" style="text;html=1;align=left;verticalAlign=middle;whiteSpace=wrap;rounded=0;" parent="ZS5StDtK9BJqc9LHPtpe-1" vertex="1">
          <mxGeometry y="100" width="200" height="100" as="geometry" />
        </mxCell>
        <mxCell id="ZS5StDtK9BJqc9LHPtpe-3" value="&lt;font style=&quot;font-size: 16px;&quot;&gt;General&lt;/font&gt;" style="text;html=1;align=center;verticalAlign=middle;whiteSpace=wrap;rounded=0;" parent="ZS5StDtK9BJqc9LHPtpe-1" vertex="1">
          <mxGeometry x="20" y="110" width="70" height="30" as="geometry" />
        </mxCell>
        <mxCell id="ZS5StDtK9BJqc9LHPtpe-4" value="" style="endArrow=none;html=1;rounded=0;exitX=0.5;exitY=1;exitDx=0;exitDy=0;" parent="ZS5StDtK9BJqc9LHPtpe-1" source="ZS5StDtK9BJqc9LHPtpe-2" edge="1">
          <mxGeometry width="50" height="50" relative="1" as="geometry">
            <mxPoint x="50" y="150" as="sourcePoint" />
            <mxPoint x="100" y="100" as="targetPoint" />
          </mxGeometry>
        </mxCell>
        <mxCell id="ZS5StDtK9BJqc9LHPtpe-5" value="&lt;div&gt;&lt;font style=&quot;font-size: 13px;&quot;&gt;Drawing&lt;/font&gt;&lt;/div&gt;&lt;div&gt;&lt;font style=&quot;font-size: 13px;&quot;&gt;Page&lt;/font&gt;&lt;/div&gt;&lt;div&gt;&lt;span style=&quot;font-size: 24px; background-color: transparent; color: light-dark(rgb(0, 0, 0), rgb(255, 255, 255));&quot;&gt;2 / X&lt;/span&gt;&lt;/div&gt;" style="text;html=1;align=center;verticalAlign=middle;whiteSpace=wrap;rounded=0;fillColor=default;" parent="1" vertex="1">
          <mxGeometry x="990" y="740" width="100" height="100" as="geometry" />
        </mxCell>
        <mxCell id="fZEjTNOgHe3qDdnWh54v-1" value="&lt;font face=&quot;Courier New&quot; style=&quot;font-size: 20px;&quot;&gt;CMU&lt;/font&gt;" style="rounded=0;whiteSpace=wrap;html=1;fillColor=#bac8d3;strokeColor=#23445d;" parent="1" vertex="1">
          <mxGeometry x="520" y="170" width="100" height="50" as="geometry" />
        </mxCell>
        <mxCell id="fZEjTNOgHe3qDdnWh54v-2" value="&lt;font face=&quot;Courier New&quot; style=&quot;font-size: 20px;&quot;&gt;CMU&lt;/font&gt;" style="rounded=0;whiteSpace=wrap;html=1;fillColor=#bac8d3;strokeColor=#23445d;" parent="1" vertex="1">
          <mxGeometry x="520" y="70" width="100" height="50" as="geometry" />
        </mxCell>
        <mxCell id="cgU1a-_r7NcbaBn_P0NX-8" style="edgeStyle=orthogonalEdgeStyle;rounded=0;orthogonalLoop=1;jettySize=auto;html=1;exitX=1;exitY=0.5;exitDx=0;exitDy=0;entryX=0.5;entryY=1;entryDx=0;entryDy=0;endArrow=none;startFill=0;endFill=1;startArrow=classic;" parent="1" source="cgU1a-_r7NcbaBn_P0NX-2" target="odWF-HK0cc1Ldgiukb00-8" edge="1">
          <mxGeometry relative="1" as="geometry" />
        </mxCell>
        <mxCell id="cgU1a-_r7NcbaBn_P0NX-2" value="" style="rounded=0;whiteSpace=wrap;html=1;fillColor=light-dark(#A0522D,#7F00FF);fontColor=#ffffff;strokeColor=#6D1F00;sketch=1;curveFitting=1;jiggle=2;fillStyle=zigzag-line;" parent="1" vertex="1">
          <mxGeometry x="720" y="200" width="130" height="180" as="geometry" />
        </mxCell>
        <mxCell id="cgU1a-_r7NcbaBn_P0NX-5" style="edgeStyle=orthogonalEdgeStyle;rounded=0;orthogonalLoop=1;jettySize=auto;html=1;entryX=0.919;entryY=-0.02;entryDx=0;entryDy=0;entryPerimeter=0;" parent="1" source="odWF-HK0cc1Ldgiukb00-3" target="cgU1a-_r7NcbaBn_P0NX-1" edge="1">
          <mxGeometry relative="1" as="geometry" />
        </mxCell>
        <mxCell id="odWF-HK0cc1Ldgiukb00-8" value="&lt;pre&gt;&lt;span style=&quot;background-color: light-dark(#ffffff, var(--ge-dark-color, #121212));&quot;&gt;Compacted Fill&lt;/span&gt;&lt;/pre&gt;" style="text;align=center;verticalAlign=middle;whiteSpace=wrap;rounded=0;strokeColor=default;fillColor=light-dark(#FFFFFF,#4524FF);sketch=1;curveFitting=1;jiggle=2;fillStyle=zigzag-line;fontFamily=Helvetica;fontSize=12;fontColor=default;html=1;textShadow=0;" parent="1" vertex="1">
          <mxGeometry x="870" y="225" width="220" height="40" as="geometry" />
        </mxCell>
        <mxCell id="0JdNyJe5WMM530hX5aAt-1" value="&lt;font face=&quot;Courier New&quot; style=&quot;font-size: 22px;&quot;&gt;&#39;3&lt;/font&gt;" style="shape=dimension;direction=north;whiteSpace=wrap;html=1;align=center;points=[];verticalAlign=bottom;labelBackgroundColor=none;horizontal=0;spacingBottom=3;rotation=-180;" vertex="1" parent="1">
          <mxGeometry y="350" width="100" height="240" as="geometry" />
        </mxCell>
      </root>
    </mxGraphModel>
  </diagram>
</mxfile>
